<svg width="24" height="24" viewBox="0 0 24 24" fill="none" xmlns="http://www.w3.org/2000/svg">
<path d="M6.4227 9.09161H2.60842C2.43914 9.09161 2.30197 9.22884 2.30197 9.39807V21.6517C2.30197 21.821 2.43914 21.9582 2.60842 21.9582H6.4227C6.59199 21.9582 6.72916 21.821 6.72916 21.6517V9.39807C6.72916 9.22884 6.59199 9.09161 6.4227 9.09161Z" fill="#22D4FD"/>
<path d="M4.51695 3C3.12909 3 2 4.12786 2 5.51419C2 6.90113 3.12909 8.02942 4.51695 8.02942C5.9037 8.02942 7.03187 6.90107 7.03187 5.51419C7.03194 4.12786 5.9037 3 4.51695 3Z" fill="#22D4FD"/>
<path d="M16.1246 8.78699C14.5927 8.78699 13.4602 9.44555 12.7733 10.1938V9.39799C12.7733 9.22877 12.6361 9.09154 12.4669 9.09154H8.81402C8.64474 9.09154 8.50757 9.22877 8.50757 9.39799V21.6516C8.50757 21.8209 8.64474 21.9581 8.81402 21.9581H12.62C12.7892 21.9581 12.9264 21.8209 12.9264 21.6516V15.5889C12.9264 13.5459 13.4813 12.75 14.9055 12.75C16.4565 12.75 16.5797 14.026 16.5797 15.694V21.6517C16.5797 21.821 16.7169 21.9582 16.8862 21.9582H20.6936C20.8628 21.9582 21 21.821 21 21.6517V14.9304C21 11.8925 20.4208 8.78699 16.1246 8.78699Z" fill="#22D4FD"/>
</svg>
